<?xml version="1.0" encoding="UTF-8"?>
<svg id="Layer_1" xmlns="http://www.w3.org/2000/svg" xmlns:xlink="http://www.w3.org/1999/xlink" baseProfile="tiny" version="1.2" viewBox="0 0 75 75">
  <!-- Generator: Adobe Illustrator 29.6.1, SVG Export Plug-In . SVG Version: 2.1.1 Build 9)  -->
  <defs>
    <linearGradient id="linear-gradient" x1="9.96" y1="37.5" x2="65.04" y2="37.5" gradientUnits="userSpaceOnUse">
      <stop offset="0" stop-color="#0063ac"/>
      <stop offset="1" stop-color="#00c0cd"/>
    </linearGradient>
  </defs>
  <path id="PRnZkq" d="M46.29,0c6.25,6.16,12.54,12.35,18.61,18.66l.14.74v22.27c-.02.8-.89,1.35-1.61,1.02-.08-.03-.59-.54-.59-.58v-21.9h-13.55c-1.6,0-4.47-2.73-4.47-4.32v-7.1h-25.56s-.26.23-.29.3c-.15.33-.14,4.27-.08,4.91.03.35.02.79.43.88l21.77.06c1.59.19,1.1,2.28-.44,2.2-6.77-.38-14.1.51-20.81,0-1.33-.1-2.52-.48-2.95-1.88-.34-1.11-.32-5.94.06-7.03.22-.62,1.23-1.64,1.88-1.64h26V2.2H14.87c-.06,0-.9.36-1.03.43-1.03.58-1.6,1.7-1.68,2.86v64.02c.16,1.81,1.31,3.13,3.15,3.3h44.39c1.78-.16,2.94-1.42,3.14-3.16v-22.99c.23-1.42,2.25-1.16,2.2.28v22.85c-.27,2.82-2.36,4.98-5.19,5.21H15.16c-2.9-.23-5-2.48-5.2-5.35V5.34c.15-1.97,1.06-3.54,2.74-4.58l1.95-.76h31.64ZM61.23,18.02l-14.21-14.21v11.79c0,.29.69,1.3.95,1.54.27.25,1.31.87,1.62.87h11.64ZM18.57,22.3c1.54-.26,6.53-.2,8.17-.03,1.07.11,1.99.67,2.13,1.83.23,1.87.18,6.58,0,8.51-.1,1.02-.82,1.71-1.84,1.82-1.87.21-6.31.18-8.21,0-1.5-.14-1.98-1.02-2.12-2.42-.17-1.85-.17-5.46,0-7.32.1-1.15.63-2.18,1.86-2.38ZM26.66,24.46h-7.54l-.22.22v7.54h7.76v-7.76ZM18.57,38.85c1.54-.26,6.53-.2,8.17-.03,1.07.11,1.99.67,2.13,1.83.23,1.87.18,6.58,0,8.51-.1,1.02-.82,1.71-1.84,1.82-1.87.21-6.31.18-8.21,0-1.5-.14-1.98-1.02-2.12-2.42-.17-1.85-.17-5.46,0-7.32.1-1.15.63-2.18,1.86-2.38ZM26.66,41.01h-7.54l-.22.22v7.54h7.76v-7.76ZM18.57,55.4c1.54-.26,6.53-.2,8.17-.03,1.07.11,1.99.67,2.13,1.83.23,1.87.18,6.58,0,8.51-.1,1.02-.82,1.71-1.84,1.82-1.87.21-6.31.18-8.21,0-1.5-.14-1.98-1.02-2.12-2.42-.17-1.85-.17-5.46,0-7.32.1-1.15.63-2.18,1.86-2.38ZM26.66,57.56h-7.54l-.22.22v7.54h7.76v-7.76ZM34.35,24.46h22.27c1.52-.17,1.25-2.08-.15-2.2l-22.24.03c-1.22.37-1.22,2.01.11,2.17ZM34.35,28.86h22.27c1.52-.17,1.25-2.08-.15-2.2l-22.24.03c-1.22.37-1.22,2.01.11,2.17ZM34.35,41.02h22.27c1.52-.17,1.25-2.08-.15-2.2l-22.24.03c-1.22.37-1.22,2.01.11,2.17ZM34.35,45.41h22.27c1.52-.17,1.25-2.08-.15-2.2l-22.24.03c-1.22.37-1.22,2.01.11,2.17ZM34.35,57.57h22.27c1.52-.17,1.25-2.08-.15-2.2l-22.24.03c-1.22.37-1.22,2.01.11,2.17ZM34.35,61.96h22.27c1.52-.17,1.25-2.08-.15-2.2l-22.24.03c-1.22.37-1.22,2.01.11,2.17Z" fill="url(#linear-gradient)"/>
</svg>