<?xml version="1.0" encoding="UTF-8"?>
<svg id="Layer_1" xmlns="http://www.w3.org/2000/svg" xmlns:xlink="http://www.w3.org/1999/xlink" baseProfile="tiny" version="1.2" viewBox="0 0 75 75">
  <!-- Generator: Adobe Illustrator 29.6.1, SVG Export Plug-In . SVG Version: 2.1.1 Build 9)  -->
  <defs>
    <linearGradient id="linear-gradient" x1="3.44" y1="37.5" x2="71.56" y2="37.5" gradientUnits="userSpaceOnUse">
      <stop offset="0" stop-color="#0063ac"/>
      <stop offset="1" stop-color="#00c0cd"/>
    </linearGradient>
  </defs>
  <path d="M71.08,56.08c-1.32-3.32-5.67-3.89-6.66-7.39-1.58-7.51-2.2-15.4-3.8-22.88-.26-1.2-.6-2.37-1.03-3.51-.94.58-1.99,1-3.12,1.22.25.69.46,1.4.63,2.13,1.85,7.86,2.29,16.41,4.12,24.31,1.11,3.56,3.5,4.11,5.84,6.31,1.99,1.88,1.17,4.69-1.52,5.04H9.46c-2.77-.41-3.5-3.21-1.43-5.11,3.26-2.98,5.03-2.75,6.1-7.81,1.56-7.4,2.06-15.39,3.77-22.74,2.03-8.69,9.71-14.97,18.61-15.42,3.17-.16,6.24.44,9.01,1.64.28-1.11.76-2.13,1.41-3.04-.82-.35-1.67-.65-2.55-.89.11-2.69-.87-5.47-3.25-6.89-5.19-3.09-11,1.08-10.5,6.89-8.33,2.32-14.4,9.35-16.22,17.74-1.64,7.59-2.23,15.63-3.9,23.25-1.07,3.27-5.38,3.93-6.63,7.26-1.56,4.15,1.24,8.32,5.59,8.63l16.19.02c1.1,6.54,7.17,11.09,13.79,10,5.16-.85,9-4.91,9.89-10l16.34-.04c4.34-.37,7.02-4.61,5.4-8.72ZM40.86,6.99h-6.71c-.18-4.74,6.86-4.69,6.71,0ZM29.2,64.82h16.61c-1.92,8.94-14.7,8.94-16.61,0ZM61.02,14.81c0,3.87-3.14,7-7,7s-7-3.14-7-7,3.14-7,7-7,7,3.14,7,7Z" fill="url(#linear-gradient)"/>
</svg>