<?xml version="1.0" encoding="UTF-8"?>
<svg id="Layer_1" xmlns="http://www.w3.org/2000/svg" xmlns:xlink="http://www.w3.org/1999/xlink" baseProfile="tiny" version="1.2" viewBox="0 0 75 75">
  <!-- Generator: Adobe Illustrator 29.6.1, SVG Export Plug-In . SVG Version: 2.1.1 Build 9)  -->
  <defs>
    <linearGradient id="linear-gradient" x1="0" y1="37.5" x2="75" y2="37.5" gradientUnits="userSpaceOnUse">
      <stop offset="0" stop-color="#ffffff"/>
      <stop offset="1" stop-color="#ffffff"/>
    </linearGradient>
  </defs>
  <path id="QsNtxQ" d="M0,31.03c.57-1.55,2.28-2.35,3.74-1.32.56.4.81,1.07,1.2,1.57.09.12,0,.27.33.19C7.61,16.5,20.11,4.61,35.09,2.64c27.11-3.57,47.73,23.48,37.02,48.74-8.77,20.7-35.73,28.15-53.59,14.06-1.67-1.32-5.79-5.18-6.6-7.02-1.09-2.49,1.93-4.63,3.96-2.49.89.94,1.69,2.25,2.63,3.23,12.57,13.01,34.22,11.2,45.24-2.8,11.16-14.18,7.59-35.05-7.63-44.62C37.61.09,13.38,11.09,9.81,32.42l1.85-1.66c2.47-1.19,4.7,1.38,2.91,3.64-.93,1.17-4.94,5.24-6.09,6.06-.95.68-1.96.77-2.92.02L0,32.2v-1.17ZM36.32,17.34v21.39s.66,1.68.66,1.68l14.32,10.73c2.26,1.47,4.78-1.31,3.11-3.41l-13.37-10.35-.04-20.17c-.26-1.37-1.41-2.18-2.81-1.95-.97.16-1.79,1.1-1.87,2.09Z" fill="url(#linear-gradient)"/>
</svg>