<?xml version="1.0" encoding="UTF-8"?>
<svg id="Layer_1" xmlns="http://www.w3.org/2000/svg" xmlns:xlink="http://www.w3.org/1999/xlink" baseProfile="tiny" version="1.2" viewBox="0 0 75 75">
  <!-- Generator: Adobe Illustrator 29.6.1, SVG Export Plug-In . SVG Version: 2.1.1 Build 9)  -->
  <defs>
    <linearGradient id="linear-gradient" x1=".32" y1="37.5" x2="74.68" y2="37.5" gradientUnits="userSpaceOnUse">
      <stop offset="0" stop-color="#0063ac"/>
      <stop offset="1" stop-color="#00c0cd"/>
    </linearGradient>
  </defs>
  <path d="M73.78,35.29l-21.96-20.89c-1.12-1.05-2.8-1.05-3.92.01l-3.01,2.86,2.09,2,2.85-2.78,21.84,20.81h-7.6v19.58c0,.87-.7,1.58-1.58,1.58h-7.53s-.63.01-.63.01c.19-.49.29-1.03.29-1.59v-16.67h4.84c1.18,0,2.22-.69,2.66-1.77.43-1.09.16-2.33-.69-3.15l-21.96-20.89c-1.11-1.03-2.83-1.03-3.93.01l-3.03,2.88,2.1,1.99,2.86-2.79,21.8,20.81h-7.55v19.58c0,.89-.71,1.58-1.61,1.58h-7.54s-.6.01-.6.01c.19-.49.29-1.03.29-1.59v-16.66h4.85c1.17,0,2.21-.7,2.64-1.79.44-1.09.17-2.33-.68-3.14L27.11,14.4c-1.09-1.03-2.82-1.03-3.94,0L1.2,35.29c-.84.81-1.11,2.04-.68,3.14.44,1.09,1.49,1.79,2.66,1.79h4.85v17.79c0,1.86,1.51,3.37,3.37,3.37h47.17s3.92-.01,3.92-.01c2.48,0,4.49-2.01,4.49-4.49v-16.67h4.84c1.18,0,2.22-.69,2.66-1.77.43-1.09.16-2.33-.7-3.15ZM39.35,56.88c0,.88-.71,1.59-1.59,1.59H11.4c-.25,0-.46-.21-.46-.46v-20.69h-.49l-7.24.08,21.93-20.86,21.97,20.78h-7.76v19.56Z" fill="url(#linear-gradient)"/>
</svg>