<?xml version="1.0" encoding="UTF-8"?>
<svg id="Layer_1" xmlns="http://www.w3.org/2000/svg" xmlns:xlink="http://www.w3.org/1999/xlink" baseProfile="tiny" version="1.2" viewBox="0 0 75 75">
  <!-- Generator: Adobe Illustrator 29.6.1, SVG Export Plug-In . SVG Version: 2.1.1 Build 9)  -->
  <defs>
    <linearGradient id="linear-gradient" x1="9.36" y1="37.5" x2="65.64" y2="37.5" gradientUnits="userSpaceOnUse">
      <stop offset="0" stop-color="#ffffff"/>
      <stop offset="1" stop-color="#ffffff"/>
    </linearGradient>
  </defs>
  <path d="M65.31,46.06c-.26-3.13-.85-6.19-2.37-8.99-.54-.99-1.12-1.98-1.78-2.89-2.89-3.99-4.22-8.47-4.36-13.36-.06-2.06-1.23-3.52-3.11-3.58-.97-.03-1.95.39-2.98.63-.01-.26-.05-.59-.04-.93.05-3.82-2.56-5.79-5.76-5.72-6.29.14-12.58.04-18.87.04-3.43,0-5.43,1.99-5.44,5.46-.01,3.13,0,6.25,0,9.38v2.68c-5.54-.84-8.23,5.8-4.55,9.99-2.35,2.92-2.29,5.87.04,8.75-2.53,3.17-2.37,5.89.42,9.09-.28.85-.65,1.63-.8,2.46-.37,2.04.21,3.82,1.89,5.09,1.51,1.14,3.1,1.1,4.69.08.16-.1.48-.13.61-.04,1.29.87,2.74.73,4.18.8.5.03,1.08.34,1.45.7,1.53,1.51,2.9,3.17,4.48,4.62,2.54,2.32,5.38,4.13,8.91,4.58,3.93.51,9.79-1.17,11.97-5.85.18-.38.71-.66,1.15-.82,5.32-1.99,8.87-5.59,10.11-11.22.8-3.63.48-7.31.17-10.97ZM18.91,31.28c1.02-.26,1.67.21,1.69,1.24.01.62,0,1.24,0,1.87h0c0,.58,0,1.17,0,1.75-.02,1.12-.65,1.58-1.73,1.28-1.22-.34-2.02-1.57-2.02-3.09,0-1.49.85-2.74,2.07-3.05ZM16.84,51.83c.02-1.66,1.11-3.05,2.42-3.05,1.3,0,2.57,1.79,2.58,3.65,0,1.56-.89,2.5-2.41,2.51-1.52,0-2.6-1.3-2.58-3.11ZM19.93,62.45c-1.02-.02-1.84-1.11-1.84-2.46,0-1.29.87-2.48,1.84-2.5.99-.02,1.94,1.25,1.92,2.56-.02,1.3-.91,2.42-1.92,2.4ZM19.88,46.2c-1.37.23-2.65-.72-2.95-2.18-.06-.3-.07-.62-.1-.93-.05-.02-.1-.05-.15-.07.29-.7.48-1.47.9-2.08.86-1.23,2.35-1.24,3.22-.02.46.64.79,1.44.97,2.21.36,1.55-.5,2.84-1.9,3.08ZM22.79,47.56c2.12-2.2,1.91-4.84.47-7.61-.18-.36-.2-.83-.2-1.24-.01-7.23,0-14.45,0-21.68,0-2.42.83-3.28,3.21-3.28,6.17-.02,12.34-.02,18.52,0,2.53,0,3.31.83,3.33,3.4.01,1.94-.01,3.81-.91,5.67-1.12,2.32-1.05,4.91-.3,7.33,1.04,3.37,1.32,6.77,1.23,10.27-.09,3.9-.03,7.81-.03,11.72,0,.07-.03.15-.07.32h-23.39c-.61-1.62-1.2-3.16-1.85-4.88ZM25.97,62.48c-1.76-.01-1.91-.21-1.7-1.95.18-1.47-.12-2.45-1.3-4.29.42-1.08,1.15-1.33,2.22-1.33,7.15.05,14.29.03,21.44.03.46,0,.92,0,1.46,0,0,1.89.09,3.64-.03,5.38-.09,1.32-1.16,2.12-2.64,2.13-3.55.03-7.11.02-10.66.02-2.93,0-5.86.01-8.79,0ZM62.75,55.85c-.78,5.33-4.21,8.64-9.29,10.23-.91.29-1.42.72-1.79,1.61-1.42,3.39-4.36,4.48-7.71,4.78-3.59.31-6.36-1.52-8.96-3.67-1.29-1.06-2.51-2.2-3.76-3.31.13-.17.26-.34.39-.52,4.68,0,9.36.02,14.04,0,2.46-.01,4.41-1.7,4.81-4.12.11-.69.16-1.4.17-2.1.01-5.74,0-11.49.02-17.23,0-.65.08-1.33.25-1.95.5-1.78.03-3.48-.36-5.19-.52-2.31-1.17-4.61-1.53-6.95-.31-1.98.2-3.91,1.41-5.54.57-.76,1.34-1.44,2.15-1.91,1.05-.61,1.52-.28,1.72.95.4,2.49.54,5.07,1.29,7.45.76,2.38,1.88,4.73,3.3,6.79,2.33,3.39,3.7,7.06,3.93,11.1.18,3.18.37,6.44-.09,9.57ZM12.77,10.83c-.56,1.5-.72,3.17-.93,4.78-.12.9-.07,1.83-1.29,1.8-1.22-.03-1.21-.99-1.2-1.88,0-.19,0-.39,0-.36C9.64,6.58,16.58-.05,25.01,0c.87,0,1.7.05,1.79,1.18.07.86-.56,1.31-1.79,1.33-5.69.11-10.29,3.15-12.24,8.32ZM23.05,7.8c-.21.19-.54.7-1,.87-1.95.73-3.33,1.97-3.97,3.98-.27.84-.84,1.26-1.69.95-.8-.29-.92-.95-.67-1.73.87-2.77,2.7-4.59,5.45-5.49,1.08-.35,1.86.13,1.88,1.42ZM37.97,59.94h-4.83v-2.38h4.83v2.38ZM36.7,35.55h-2.37v-2.38h2.37v2.38ZM28.35,42.17h4.45s5.35,0,5.35,0h0s4.54,0,4.54,0v-7.81h2.45l-2.45-3.42-1.03-1.44-1.33-1.86-4.81-6.71-4.81,6.71-1.33,1.86-1.03,1.44-2.45,3.42h2.45v7.81ZM32.43,28.87l3.09-4.32,3.09,4.32.45.63,1.51,2.11h0v8.45h-2.43v-2.84h-5.35v2.84h-2.34v-8.44h0s1.51-2.12,1.51-2.12l.45-.63Z" fill="url(#linear-gradient)"/>
</svg>