<?xml version="1.0" encoding="UTF-8"?>
<svg id="Layer_2" xmlns="http://www.w3.org/2000/svg" xmlns:xlink="http://www.w3.org/1999/xlink" baseProfile="tiny" version="1.2" viewBox="0 0 70 70">
  <!-- Generator: Adobe Illustrator 29.6.1, SVG Export Plug-In . SVG Version: 2.1.1 Build 9)  -->
  <defs>
    <linearGradient id="linear-gradient" x1="0" y1="35" x2="70" y2="35" gradientUnits="userSpaceOnUse">
      <stop offset="0" stop-color="#0063ac"/>
      <stop offset="1" stop-color="#00c0cd"/>
    </linearGradient>
  </defs>
  <path d="M29.89,36.03c-3.3,2.57-8.17,3.08-12.27.29-2.85-1.93-4.62-5.54-4.14-8.96h11.35c-.14-.61-.24-1.23-.3-1.86h-12.76v-2.95h8.71c1.08,0,1.93-.92,1.87-2,0,0,0-.01,0-.02h-.65v-10.24h1.7c.34,0,.64-.2.8-.5,0,0,0-.01,0-.02.3-.59-.14-1.29-.81-1.29l-3.26.03c-.66.32-.04,1.86-.46,2.18-5.2,1.12-9.53,5.79-9.93,11.16-.06.79-.11,4.66.17,5.1.31.5,1.01.42,1.53.41-.48,9.19,8.74,15.36,17.17,11.66,1.05-.46,1.98-1.05,2.8-1.76-.54-.38-1.05-.78-1.54-1.23ZM19.84,12.62v7.91h-7.91c.95-3.86,4.04-6.96,7.91-7.91ZM24.22,44.47c.91-.61,1.85-1.18,2.83-1.69-12.04-1.71-24.34,6.14-26.71,19.6-.19,1.12-1.06,4.55,1.05,3.84.8-.27.66-2.65.81-3.53.58-3.52,2.11-6.61,3.99-9.58l.31.07c-.06,3.42.07,6.84,0,10.25-.01.82-.65,2.55.57,2.83.88.2,1.28-.28,1.3-1.13l.02-14.24c.2-.89,3.24-2.78,4.08-3.37.48-.04.08.16.08.23-.18,3.77-.04,7.75-.01,11.59.56-1.52,1.24-2.98,2.03-4.37h-.16v-8.53c3.07-1.33,6.46-2.04,9.81-1.97ZM57.6,15.83c-.52-6.28-5.92-11.79-11.93-13.22-.35-.49.32-2.16-.58-2.61h-8.04l-.09.06c-.8.39-.05,2.25-.56,2.63-6.29,1.37-11.53,7.02-12.01,13.51-.08.96-.14,5.64.2,6.18.38.6,1.23.49,1.86.48-.58,11.12,10.56,18.6,20.77,14.11,5.62-2.47,8.58-8.08,8.5-14.11.72.02,1.41.17,1.74-.61.28-.68.22-5.4.14-6.42ZM45.59,5.04c4.61,1.23,8.54,5,9.38,9.75-.07.1-.24-.18-.28-.18h-9.1V5.04ZM38.83,2.22h4.51v12.29l-.28.24c-.08.01-.15-.14-.19-.14h-4.04V2.22ZM36.58,5.04v9.57h-9.57c1.15-4.67,4.89-8.43,9.57-9.57ZM33.89,33.71c-3.44-2.34-5.58-6.7-5-10.85h24.39c.76,10.51-10.74,16.73-19.39,10.85ZM55.35,20.61h-28.53v-3.56h28.53v3.56ZM27.76,47.54c0-.09.48-.33-.09-.28-1.01.71-4.7,3-4.94,4.07l-.03,17.23c-.02,1.02-.5,1.6-1.56,1.36-1.48-.33-.71-2.43-.69-3.43.08-4.13-.08-8.26,0-12.39l-.37-.09c-2.27,3.6-4.12,7.34-4.83,11.59-.18,1.07-.01,3.95-.98,4.27-2.55.86-1.5-3.3-1.27-4.64,3.84-21.82,29.26-31.48,46.57-17.41,5.5,4.46,10.27,13.18,10.43,20.35.02.72.04,1.64-.86,1.79-1.94.32-1.41-2.05-1.61-3.26-.76-4.74-2.41-8.71-5.05-12.69h-.28c-.27.03.09.24.09.28v14.83c0,.82-2.17,1.45-2.43-.2l-.05-17.78c-1.46-1.55-3.25-2.73-5.03-3.89v16.23c0,1.09-2.25.9-2.25.19v-5.35h-22.33v5.16c0,1.18-2.44.92-2.44-.19,0-5.17-.24-10.64,0-15.76ZM52.53,56.27v-10.04c-6.92-3.68-15.42-3.35-22.52-.28v10.32h22.52Z" fill="url(#linear-gradient)"/>
</svg>