<?xml version="1.0" encoding="UTF-8"?>
<svg id="Layer_2" xmlns="http://www.w3.org/2000/svg" xmlns:xlink="http://www.w3.org/1999/xlink" baseProfile="tiny" version="1.2" viewBox="0 0 70 70">
  <!-- Generator: Adobe Illustrator 29.6.1, SVG Export Plug-In . SVG Version: 2.1.1 Build 9)  -->
  <defs>
    <linearGradient id="linear-gradient" x1="6.72" y1="34.87" x2="69.66" y2="34.87" gradientUnits="userSpaceOnUse">
      <stop offset="0" stop-color="#0063ac"/>
      <stop offset="1" stop-color="#00c0cd"/>
    </linearGradient>
  </defs>
  <path d="M34.68,70.12c-7.89,0-15.45-3.93-20.74-10.79-.34-.44-.38-1.04-.1-1.52s.82-.74,1.37-.66c.59.09,1.18.16,1.78.24,5.68.7,11.63,1.05,17.69,1.05s12.02-.35,17.69-1.05c.6-.08,1.19-.15,1.78-.24.55-.08,1.09.18,1.37.66.28.48.24,1.08-.1,1.52-5.28,6.86-12.84,10.8-20.74,10.8ZM18.38,60.29c4.53,4.56,10.31,7.11,16.29,7.11s11.77-2.55,16.29-7.11c-10.52,1.15-22.07,1.15-32.59,0ZM34.68,50.57c-8.43,0-16.55-.66-24.15-1.97l.1-1.36-.23,1.34c-1.32-.22-2.37-1.2-2.68-2.49-.66-2.83-1-5.76-1-8.74,0-7.37,2.03-14.32,5.88-20.1,5.12-7.75,12.86-12.37,21.24-12.66.55-.02,1.13-.02,1.69,0,8.37.3,16.11,4.91,21.24,12.67,3.84,5.77,5.88,12.72,5.88,20.1,0,2.98-.34,5.92-1,8.74-.3,1.29-1.35,2.26-2.67,2.49l-.12.02c-7.61,1.31-15.74,1.97-24.16,1.97ZM34.63,7.31c-.24,0-.47,0-.69,0-7.49.27-14.43,4.44-19.07,11.45-3.55,5.33-5.42,11.76-5.42,18.6,0,2.76.31,5.49.93,8.11.05.22.24.39.48.43l.14.02c7.45,1.28,15.42,1.93,23.69,1.93s16.24-.65,23.7-1.93l.13-.02c.23-.04.43-.21.48-.43.62-2.62.93-5.35.93-8.12,0-6.83-1.88-13.26-5.42-18.59-4.63-7.01-11.58-11.19-19.07-11.45-.25,0-.48,0-.75,0h-.05ZM34.68,61.16c-6.17,0-12.23-.36-18.01-1.07l-.53-.06-.34-.41c-2.85-3.37-5.05-7.51-6.34-11.97l-.61-2.09,2.15.37c7.45,1.28,15.42,1.93,23.69,1.93s16.24-.65,23.7-1.93l2.15-.37-.61,2.09c-1.3,4.46-3.49,8.6-6.34,11.97l-.34.41-.53.06c-5.78.71-11.84,1.07-18.02,1.07ZM17.53,57.45c5.51.65,11.27.98,17.14.98s11.64-.33,17.15-.98c2-2.47,3.63-5.36,4.79-8.49-6.96,1.07-14.33,1.61-21.94,1.61s-14.98-.54-21.93-1.61c1.15,3.12,2.78,6.02,4.79,8.49ZM60.1,11.09l3.99-3.99c.53-.53.53-1.39,0-1.92-.53-.53-1.39-.53-1.92,0l-3.99,3.99c-.53.53-.53,1.39,0,1.92.27.27.61.4.96.4s.7-.13.96-.4ZM69.66,13.64c0-.75-.61-1.36-1.36-1.36h-5.65c-.75,0-1.36.61-1.36,1.36s.61,1.36,1.36,1.36h5.65c.75,0,1.36-.61,1.36-1.36ZM56.99,6.62V.97c0-.75-.61-1.36-1.36-1.36s-1.36.61-1.36,1.36v5.65c0,.75.61,1.36,1.36,1.36s1.36-.61,1.36-1.36Z" fill="url(#linear-gradient)"/>
</svg>