<?xml version="1.0" encoding="UTF-8"?>
<svg id="Layer_1" xmlns="http://www.w3.org/2000/svg" xmlns:xlink="http://www.w3.org/1999/xlink" baseProfile="tiny" version="1.2" viewBox="0 0 70 70">
  <!-- Generator: Adobe Illustrator 29.6.1, SVG Export Plug-In . SVG Version: 2.1.1 Build 9)  -->
  <defs>
    <linearGradient id="linear-gradient" x1=".15" y1="35" x2="69.85" y2="35" gradientUnits="userSpaceOnUse">
      <stop offset="0" stop-color="#0063ac"/>
      <stop offset="1" stop-color="#00c0cd"/>
    </linearGradient>
  </defs>
  <path id="SZDWlk" d="M16.31,45.37c3.37.21,5.84,1.88,7.78,4.5.7.95,1.49,1.84,2.24,2.76,1.39,1.7,2.79,3.4,4.17,5.12.28.35.56.51,1.03.51,2.49-.03,4.99.11,7.47-.06,1.57-.11,3.11-.64,4.65-1.03.19-.05.36-.37.47-.6,1.19-2.56,2.39-5.12,3.54-7.7.35-.79.84-1.11,1.72-1.11,5.52.03,11.03.05,16.55,0,1.39-.02,1.87.97,1.34,2.08-2.12,4.45-4.14,8.94-6.22,13.4-.35.74-.55,1.47-.51,2.29.03.57.02,1.17-.12,1.72-.39,1.58-1.72,2.6-3.33,2.6-7.36,0-14.71,0-22.07,0-1.38,0-2.42-.63-3.07-1.83-.23-.42-.48-.52-.91-.5-1.02.03-2.03,0-3.05.01-1.89.04-3.43-.68-4.68-2.06-.71-.78-1.41-1.57-2.24-2.49v6.83h-2.34c0-.24,0-.49,0-.75,0-2.69.02-5.37-.02-8.06,0-.36-.18-.8-.41-1.07-1.26-1.47-2.57-2.89-3.93-4.4.57-.52,1.13-1.02,1.74-1.57,1.46,1.62,2.88,3.2,4.3,4.77,1.51,1.67,3.03,3.33,4.5,5.03.87,1,1.93,1.47,3.25,1.45,2.63-.02,5.27,0,7.94,0v-4.65c-1.81,0-3.59-.03-5.37.01-.7.02-1.17-.24-1.6-.78-2.56-3.16-5.13-6.3-7.72-9.44-1.41-1.71-3.26-2.54-5.45-2.57-2.49-.03-4.98-.02-7.48,0-3.51.02-6.02,2.53-6.02,6.06-.01,5.01,0,10.02,0,15.03,0,.29,0,.58,0,.93H.15c0-.25,0-.5,0-.76,0-5.08,0-10.16,0-15.25,0-3.63,1.92-6.49,5.29-7.81.42-.17.49-.38.54-.78.2-1.93-.24-3.62-1.39-5.23-.89-1.24-1.71-2.56-2.02-4.14-.76-3.89,2.34-7.76,6.31-7.8,2.9-.02,5.81-.01,8.71,0,1.65,0,2.96,1.04,3.38,2.65.39,1.47-.26,3.1-1.65,3.84-.5.27-.6.57-.59,1.07.03,1.79-.05,3.58.03,5.37.09,1.99-.53,3.51-2.45,4.41ZM64.53,50.1c-4.9,0-9.67,0-14.43.02-.22,0-.52.29-.63.51-1.06,2.22-2.08,4.46-3.11,6.7-.09.19-.15.39-.23.62,1.03.62,2.01,1.25,3.02,1.81,1.23.68,2.32,1.44,2.12,3.12,2.31,0,4.54-.02,6.76.02.51,0,.71-.19.9-.6,1.15-2.53,2.32-5.04,3.48-7.56.69-1.51,1.39-3.02,2.13-4.63ZM10.61,40.81c0-1.15-.02-2.21.01-3.26.01-.34.1-.73.28-1.01.68-1.09,1.41-2.14,2.11-3.21.31-.47.72-.67,1.28-.66,1.02.02,2.03.02,3.05,0,.84-.01,1.39-.49,1.38-1.17,0-.68-.55-1.15-1.39-1.16-2.73,0-5.47-.03-8.2,0-3.39.05-5.37,3.49-3.73,6.47.68,1.22,1.42,2.42,2.17,3.6.12.18.39.36.61.37.77.04,1.54.02,2.42.02ZM38.52,60.78v4.56c.48-.2.92-.31,1.27-.56,1.18-.84,2.34-1.71,3.48-2.6.52-.4,1.03-.52,1.68-.37,1.29.3,2.6.52,4.11.81-.21-.23-.26-.31-.33-.35-1.44-.87-2.88-1.75-4.35-2.6-.19-.11-.51-.09-.74-.04-1.68.36-3.36.75-5.11,1.14ZM16.41,35c-.5,0-.92-.03-1.32.01-.19.02-.42.12-.53.26-1.03,1.38-1.87,2.75-1.7,4.66.1,1.18.36,2.06,1.28,2.77.43.33.84.55,1.39.34.57-.22.86-.65.87-1.22.02-2.24,0-4.49,0-6.82ZM47.78,65.23c0,.39-.01.7,0,1.01.04.8.47,1.27,1.27,1.28,2.64.02,5.27.02,7.91,0,.8,0,1.23-.48,1.27-1.29.02-.33,0-.66,0-1.01h-10.46ZM13.81,45.42c-.72-.64-1.43-1.27-2.15-1.9-.16-.14-.33-.36-.5-.37-.95-.04-1.9-.02-2.84-.02v2.29h5.49ZM39.93,67.51h5.61c-.04-.77-.08-1.5-.12-2.28-1.2-.02-2.34-.22-3.33.75-.63.61-1.44,1.03-2.16,1.53ZM21.86,45.45c14.76,0,29.52,0,44.28,0,2.28,0,3.7-1.44,3.7-3.72,0-12.61,0-25.22,0-37.83,0-2.34-1.41-3.76-3.74-3.76-18.03,0-36.06,0-54.09,0-2.32,0-3.74,1.42-3.74,3.76,0,7,0,13.99,0,20.99,0,.26,0,.51,0,.76h2.32c0-.35,0-.64,0-.93,0-6.83,0-13.65,0-20.48,0-1.45.33-1.77,1.8-1.77,17.76,0,35.52,0,53.29,0,1.52,0,1.84.32,1.84,1.82,0,12.34,0,24.69,0,37.03,0,1.5-.32,1.82-1.83,1.82-14.57,0-29.14,0-43.7,0-.3,0-.6,0-.91,0v2.32h.78ZM61.76,7.15v2.23h2.24v-2.23h-2.24ZM14.15,25.65h2.2v-2.25h-2.2v2.25ZM11.77,4.8c0,.65.5,1.14,1.15,1.15.68,0,1.19-.53,1.16-1.2-.02-.65-.53-1.12-1.19-1.11-.65.01-1.13.52-1.13,1.17ZM16.4,3.63c-.68,0-1.18.54-1.14,1.22.03.64.55,1.12,1.2,1.09.64-.02,1.12-.54,1.11-1.19-.01-.65-.52-1.13-1.17-1.13ZM18.74,4.76c-.02.65.46,1.16,1.11,1.19.68.03,1.21-.49,1.21-1.16,0-.65-.5-1.15-1.14-1.15-.65,0-1.15.48-1.17,1.13Z" fill="url(#linear-gradient)"/>
</svg>