<svg width="66" height="67" viewBox="0 0 66 67" fill="none" xmlns="http://www.w3.org/2000/svg">
<path d="M40.8847 0.390198C45.1108 0.390198 48.5346 3.80438 48.5507 8.02399L48.6064 13.3843C48.7394 13.3337 48.8765 13.289 49.0195 13.2564C49.7579 13.0882 50.5357 13.1984 51.3154 13.5797C53.1825 14.4928 54.0612 16.2028 54.3857 18.8199L54.4384 19.2047C55.0364 23.2028 57.2079 27.8629 59.5468 32.1529C60.7468 34.3538 61.9704 36.422 63.0214 38.23C63.9945 39.904 64.8401 41.388 65.3466 42.5103L65.4433 42.73L65.4765 42.8199C65.6186 43.2726 65.3975 43.7684 64.9521 43.9595C64.5067 44.1505 63.9958 43.969 63.7656 43.5543L63.7226 43.4683L63.541 43.066C63.0752 42.0784 62.3254 40.7584 61.4023 39.1705C60.3603 37.3781 59.1191 35.2785 57.9033 33.0484C55.4858 28.6143 53.0863 23.5185 52.5273 19.0523V19.0513C52.2419 16.7477 51.5571 15.7827 50.4931 15.2623C50.0377 15.0396 49.6963 15.0231 49.4355 15.0826C49.1634 15.1447 48.8795 15.3121 48.5918 15.6197C48.0326 16.2177 47.5867 17.2107 47.3271 18.2867L47.2783 18.5025C46.5343 21.9396 45.6663 27.0097 48.0175 31.9625L48.1328 32.1988L48.1709 32.2867C48.3375 32.7308 48.144 33.2383 47.7099 33.4537C47.2758 33.6689 46.7546 33.5153 46.5019 33.1138L46.455 33.0298L46.3271 32.7652C43.6856 27.2011 44.6967 21.5786 45.4482 18.107C45.6807 17.0308 46.1013 15.8598 46.75 14.9293L46.6787 8.04352V8.03668C46.6694 4.84543 44.0811 2.26227 40.8847 2.26227H17.749C14.7564 2.26238 12.3253 4.68923 12.3251 7.6861V30.6705L16.0791 31.2066L16.3144 31.2457C18.7242 31.7146 20.3743 33.9968 20.0185 36.4586V36.4595C19.7999 37.9927 18.8544 39.2442 17.58 39.9146C18.6168 40.9139 19.1751 42.3797 18.9531 43.9156L18.9541 43.9166C18.7354 45.4497 17.7899 46.7012 16.5156 47.3716C17.5524 48.371 18.1116 49.8377 17.8896 51.3736C17.5279 53.9105 15.178 55.6806 12.6367 55.313L12.3271 55.2681C12.3752 58.4227 14.948 60.9711 18.1181 60.9713H40.9599C44.1606 60.9712 46.7538 58.379 46.7539 55.1783V38.2847C46.7539 37.7678 47.1734 37.3482 47.6904 37.3482C48.2071 37.3486 48.6259 37.768 48.6259 38.2847V55.1783C48.6259 57.7792 47.3303 60.0747 45.3505 61.4605C46.8304 61.7282 48.3287 62.0778 49.7128 62.4429C52.5365 63.1877 54.9665 64.0136 55.9462 64.3873C56.4289 64.5716 56.6713 65.1124 56.4873 65.5953C56.303 66.0783 55.7613 66.3204 55.2783 66.1363C54.364 65.7877 51.9983 64.9823 49.2353 64.2535C46.6318 63.5668 43.743 62.967 41.4033 62.8589L40.9433 62.8443H18.1181C13.8829 62.8442 10.4531 59.4072 10.4531 55.1783V55.0005L7.43257 54.5699L7.19624 54.5298C4.78572 54.0607 3.13498 51.7777 3.49214 49.315C3.71131 47.7823 4.65641 46.5299 5.93062 45.8599C4.89343 44.8601 4.33378 43.3944 4.55659 41.858C4.77576 40.3253 5.7209 39.0729 6.99507 38.4029C5.95792 37.4031 5.39825 35.9373 5.62105 34.4009C5.76794 33.3737 6.24132 32.4722 6.92085 31.7877L3.99214 31.3697C1.4544 31.008 -0.314479 28.6576 0.0468276 26.1177L0.0819839 25.9019C0.499992 23.6942 2.4422 22.1249 4.64253 22.1246C4.85199 22.1246 5.07689 22.1375 5.30757 22.1724H5.30659L10.4531 22.9068V7.6861C10.4532 3.65417 13.7234 0.390306 17.749 0.390198H40.8847ZM8.47749 47.23C6.96531 47.0109 5.56096 48.064 5.34468 49.5806V49.5836C5.12527 51.096 6.17934 52.5002 7.69624 52.7164L12.9013 53.4595H12.9033C14.4157 53.679 15.8199 52.6259 16.0361 51.1089L16.0371 51.106C16.2561 49.5938 15.2013 48.1903 13.6845 47.9742L8.48042 47.23H8.47749ZM9.54292 39.773C8.0306 39.5535 6.62646 40.6068 6.41011 42.1236V42.1265C6.1907 43.6389 7.24379 45.0432 8.76069 45.2593L13.9658 46.0025H13.9677C15.4802 46.222 16.8844 45.1689 17.1005 43.6519L17.1015 43.649C17.3206 42.1368 16.2657 40.7333 14.749 40.5172L9.54487 39.773H9.54292ZM10.6074 32.316C9.09504 32.0965 7.6909 33.1498 7.47456 34.6666V34.6695C7.25516 36.1819 8.30824 37.5861 9.82515 37.8023L15.0302 38.5455H15.0322C16.5447 38.765 17.9488 37.7119 18.165 36.1949L18.166 36.192C18.3851 34.6797 17.3302 33.2762 15.8134 33.0601L10.6093 32.316H10.6074ZM19.5302 26.0718C20.0472 26.0718 20.4667 26.4913 20.4667 27.0084V28.9615C20.4671 29.5231 20.9237 29.9771 21.4834 29.9771H23.4355C23.9525 29.9771 24.372 30.3967 24.372 30.9136C24.3718 31.4305 23.9524 31.8492 23.4355 31.8492H21.4834C19.893 31.8492 18.595 30.5605 18.5947 28.9615V27.0084C18.5947 26.4914 19.0133 26.072 19.5302 26.0718ZM38.9062 26.0718C39.4231 26.072 39.8418 26.4914 39.8418 27.0084V28.9615C39.8414 30.5603 38.5442 31.8489 36.9541 31.8492H35.0009C34.4841 31.8492 34.0646 31.4305 34.0644 30.9136C34.0645 30.3967 34.484 29.9771 35.0009 29.9771H36.9541C37.5135 29.9768 37.9693 29.5229 37.9697 28.9615V27.0084C37.9697 26.4914 38.3892 26.0719 38.9062 26.0718ZM4.64253 23.9966C3.28765 23.997 2.09613 24.9988 1.90034 26.3795V26.3804C1.68461 27.8949 2.74017 29.3001 4.25679 29.5162L10.4531 30.4009V24.7984L5.03511 24.025C5.03267 24.0246 5.02974 24.0234 5.0273 24.023C4.90506 24.0045 4.77528 23.9966 4.64253 23.9966ZM29.5283 14.3677C31.0174 14.3677 32.411 14.925 33.4238 16.0494C34.4315 17.1682 34.9902 18.7662 34.9902 20.7281C34.9901 22.5042 34.2056 24.0776 33.1826 25.1959C33.1155 25.2692 33.0458 25.3402 32.9755 25.4107L34.0283 27.7037L34.0634 27.7925C34.2166 28.2415 34.0076 28.7427 33.5673 28.9449C33.1269 29.1468 32.6105 28.9788 32.3701 28.5699L32.3261 28.4849L31.4433 26.5621C30.8227 26.8919 30.1669 27.0884 29.5283 27.0884C28.9029 27.0884 28.2453 26.8805 27.6181 26.5357L26.7255 28.4839C26.5101 28.954 25.9543 29.1613 25.4843 28.9459C25.0145 28.7304 24.8091 28.1745 25.0244 27.7047L26.0927 25.3716C26.0372 25.3157 25.9822 25.2593 25.9287 25.2017C24.8951 24.0918 24.0664 22.5175 24.0664 20.7281C24.0664 18.7661 24.626 17.1682 25.6337 16.0494C26.6465 14.9251 28.0393 14.3678 29.5283 14.3677ZM29.5283 16.2398C28.5194 16.2399 27.6497 16.608 27.0244 17.3023C26.3939 18.0022 25.9394 19.1168 25.9394 20.7281C25.9395 21.9341 26.5044 23.0722 27.2988 23.9254C28.124 24.8115 29.025 25.2162 29.5283 25.2164C29.9667 25.2164 30.5941 24.9756 31.2216 24.4742C31.2338 24.4635 31.2469 24.454 31.2597 24.4439C31.4418 24.2954 31.624 24.1253 31.8007 23.9322C32.5737 23.0873 33.1181 21.9474 33.1181 20.7281C33.1181 19.1168 32.6626 18.0022 32.0322 17.3023C31.4068 16.6081 30.5371 16.2398 29.5283 16.2398ZM23.4355 10.6129C23.9525 10.6129 24.3719 11.0315 24.372 11.5484C24.372 12.0654 23.9525 12.4849 23.4355 12.4849H21.4834C20.9235 12.4849 20.4667 12.9396 20.4667 13.5015V15.4537C20.4667 15.9706 20.0472 16.3892 19.5302 16.3892C19.0134 16.3891 18.5948 15.9705 18.5947 15.4537V13.5015C18.5947 11.9023 19.8928 10.6129 21.4834 10.6129H23.4355ZM36.9541 10.607C38.553 10.6073 39.8416 11.9054 39.8418 13.4957V15.4478C39.8418 15.9647 39.4231 16.3842 38.9062 16.3843C38.3892 16.3843 37.9697 15.9648 37.9697 15.4478V13.4957C37.9695 12.9361 37.5156 12.4794 36.9541 12.4791H35.0009C34.484 12.479 34.0646 12.0604 34.0644 11.5435C34.0644 11.0265 34.4839 10.607 35.0009 10.607H36.9541ZM29.539 5.55231C30.056 5.55231 30.4754 5.97092 30.4755 6.48785C30.4755 7.00487 30.056 7.42438 29.539 7.42438C29.0221 7.42425 28.6035 7.0048 28.6035 6.48785C28.6036 5.971 29.0222 5.55243 29.539 5.55231Z" fill="url(#paint0_linear_4_22717)"/>
<defs>
<linearGradient id="paint0_linear_4_22717" x1="11.2445" y1="0.390197" x2="58.8464" y2="53.1225" gradientUnits="userSpaceOnUse">
<stop stop-color="#01F3FF"/>
<stop offset="1" stop-color="#004697"/>
</linearGradient>
</defs>
</svg>
