<svg width="70" height="51" viewBox="0 0 70 51" fill="none" xmlns="http://www.w3.org/2000/svg">
<path d="M61.4155 45.5283C61.8062 45.4004 62.2249 45.5921 62.3882 45.96L62.4175 46.0361L62.5493 46.4561C62.8459 47.4403 63.0623 48.4556 63.1948 49.4951C63.2502 49.9301 62.9423 50.3283 62.5073 50.3838C62.0723 50.4392 61.6752 50.1312 61.6196 49.6963C61.4981 48.7429 61.2998 47.8134 61.0288 46.9141L60.9077 46.5303L60.8862 46.4521C60.8002 46.0589 61.0248 45.6564 61.4155 45.5283ZM31.5981 0C35.4788 0 38.6674 1.33621 40.8716 3.67676C43.0449 5.98465 44.197 9.20076 44.1782 12.8916C44.4558 13.7802 44.5829 14.8338 44.5307 15.8291V15.8301C44.4727 16.9066 44.3605 17.7738 44.1743 18.4531C43.9895 19.1271 43.71 19.6966 43.2583 20.0869C42.8431 20.4488 42.5129 20.8745 42.3042 21.3457C41.1171 24.0522 39.4632 26.3883 37.6138 28.0586C35.7745 29.7196 33.6718 30.7812 31.5981 30.7812C29.6311 30.7812 27.6388 29.8246 25.8696 28.3086L24.1098 30.5078L28.3833 34.2598L28.3843 34.2607C28.8459 34.6684 29.1126 35.2125 29.1831 35.7773C29.1893 35.791 29.1962 35.8061 29.2036 35.8223C29.2488 35.9203 29.3156 36.0627 29.4009 36.2334C29.5722 36.5765 29.8136 37.029 30.0971 37.4766C30.3846 37.9301 30.6964 38.3483 31.0024 38.6436C31.3313 38.9608 31.5303 39.0174 31.5981 39.0176C31.666 39.0175 31.866 38.9614 32.1958 38.6436C32.5023 38.3481 32.814 37.9293 33.102 37.4756C33.3862 37.0279 33.6285 36.5756 33.8003 36.2324C33.8857 36.0618 33.9532 35.9203 33.9985 35.8223C34.0048 35.8086 34.0097 35.7951 34.0151 35.7832C34.0844 35.2161 34.3536 34.6699 34.8169 34.2607L34.8179 34.2598L39.0893 30.5078L38.5298 29.8066C38.2558 29.4642 38.3113 28.9644 38.6538 28.6904C38.9962 28.4168 39.4961 28.4721 39.77 28.8145L40.7182 30L43.8764 32.0928L46.7417 32.9863L46.8179 33.0146C47.188 33.1726 47.3853 33.588 47.2632 33.9805C47.1326 34.3991 46.6877 34.6334 46.269 34.5029L43.8911 33.7607L40.6118 39.874C39.9398 41.1336 38.2392 41.3685 37.2446 40.3594L34.7446 37.8242C34.6502 37.9878 34.5503 38.158 34.4429 38.3271C34.1246 38.8285 33.7339 39.3653 33.2973 39.7861C33.0524 40.0223 32.7462 40.2642 32.3921 40.4238V48.0664C32.392 48.5049 32.0367 48.8604 31.5981 48.8604C31.1597 48.8603 30.8043 48.5049 30.8042 48.0664V40.4229C30.4503 40.2631 30.1435 40.0222 29.8989 39.7861C29.4627 39.3651 29.0731 38.8276 28.7554 38.3262C28.6484 38.1574 28.5486 37.9884 28.4546 37.8252L25.9555 40.3604C24.9609 41.3691 23.2613 41.1335 22.5893 39.874L19.31 33.7617L13.3696 35.6143L12.7798 35.8105C6.73919 37.9407 2.3932 43.303 1.5825 49.6953L1.56785 49.7754C1.47714 50.1674 1.10256 50.4353 0.694804 50.3838C0.259846 50.3286 -0.0485709 49.931 0.00632764 49.4961L0.0522261 49.1582C1.0791 42.0937 6.06485 36.2313 12.897 34.0986L19.3237 32.0928L22.4829 30L24.7163 27.208C23.2194 25.631 21.8902 23.6181 20.8921 21.3438L20.8901 21.3389C20.6886 20.8723 20.3585 20.4526 19.9389 20.0869L19.8559 20.0117C19.4522 19.625 19.1952 19.0851 19.022 18.4531C18.8359 17.7744 18.7245 16.9083 18.6665 15.833L18.6577 15.6357C18.6269 14.6984 18.7549 13.7194 19.019 12.8896C19.0007 9.19976 20.1519 5.98423 22.3247 3.67676C24.5288 1.3363 27.7176 4.07585e-05 31.5981 0ZM59.5845 19.7627C59.8336 19.7628 60.0682 19.8801 60.2182 20.0791L60.2202 20.082C60.2242 20.0872 60.2322 20.0965 60.2427 20.1094C60.2634 20.1352 60.2966 20.1758 60.3423 20.2285C60.4344 20.3347 60.5768 20.4903 60.7661 20.6748C61.1456 21.0445 61.7108 21.5267 62.4477 21.9678C63.9132 22.8448 66.0532 23.562 68.8012 22.9199L68.8862 22.9043C69.083 22.8803 69.2831 22.931 69.4458 23.0479C69.6317 23.1816 69.7511 23.3892 69.7729 23.6172C69.8706 24.6452 69.9214 25.7058 69.9214 26.7881C69.9214 29.5654 69.895 31.7366 69.7065 33.4883C69.5171 35.2484 69.1593 36.6468 68.4585 37.8584C67.7553 39.0739 66.7455 40.0349 65.3667 40.9863C64.0151 41.9189 62.2616 42.8714 60.0288 44.0518C59.9016 44.1367 59.7498 44.1865 59.5884 44.1865H59.5796C59.4187 44.1865 59.267 44.1371 59.1401 44.0527C56.9058 42.8732 55.1513 41.9208 53.7993 40.9883C52.4202 40.037 51.4113 39.0752 50.7085 37.8594C50.008 36.6475 49.6505 35.2487 49.4614 33.4883C49.2733 31.7364 49.2466 29.5652 49.2466 26.7881C49.2466 25.7057 49.2983 24.6503 49.396 23.6182C49.4176 23.39 49.5361 23.1817 49.7221 23.0479C49.9082 22.9141 50.1435 22.8678 50.3667 22.9199C53.1147 23.562 55.2547 22.8448 56.7202 21.9678C57.4574 21.5266 58.0232 21.0446 58.4028 20.6748C58.5921 20.4904 58.7336 20.3347 58.8257 20.2285C58.8716 20.1756 58.9054 20.1352 58.9263 20.1094C58.9366 20.0966 58.9437 20.0872 58.9477 20.082C58.949 20.0805 58.9501 20.0789 58.9507 20.0781C59.1007 19.8796 59.3355 19.7627 59.5845 19.7627ZM59.5112 21.8125C59.0632 22.249 58.4003 22.8126 57.5356 23.3301C55.9622 24.2716 53.7161 25.0583 50.9067 24.6387C50.8597 25.3426 50.8345 26.0588 50.8345 26.7881C50.8345 29.5782 50.863 31.6648 51.0405 33.3184C51.2172 34.9635 51.5368 36.1186 52.0835 37.0645C52.628 38.0063 53.436 38.8077 54.7016 39.6807C55.9078 40.5126 57.4857 41.381 59.5835 42.4912C61.6807 41.3797 63.2591 40.511 64.4653 39.6787C65.7306 38.8056 66.5388 38.0041 67.0835 37.0625C67.6304 36.117 67.9504 34.9629 68.1274 33.3184C68.3053 31.6651 68.3335 29.5785 68.3335 26.7881C68.3335 26.0593 68.3082 25.3415 68.2612 24.6387C65.4519 25.0581 63.2057 24.2716 61.6323 23.3301C60.7679 22.8127 60.1057 22.2489 59.6577 21.8125C59.6324 21.7879 59.6074 21.7631 59.5835 21.7393C59.5597 21.7629 59.5363 21.788 59.5112 21.8125ZM35.8667 35.4531H35.8657C35.5075 35.7714 35.4919 36.3197 35.8218 36.6543L38.3764 39.2451L38.4243 39.2891C38.6757 39.4885 39.0577 39.415 39.2114 39.126L39.2124 39.123L42.4634 33.0625L40.2544 31.5986L35.8667 35.4531ZM20.7368 33.0625L23.9888 39.123L23.9907 39.126C24.1548 39.4339 24.5767 39.4967 24.8247 39.2451L27.3794 36.6533C27.7095 36.3185 27.6932 35.7714 27.3345 35.4531L22.9458 31.5986L20.7368 33.0625ZM64.8257 28.7422C65.1497 28.4467 65.6522 28.47 65.9477 28.7939C66.2432 29.118 66.22 29.6205 65.896 29.916L59.1391 36.0781C58.8402 36.3507 58.3836 36.3558 58.0796 36.0889L54.1001 32.5938L54.0415 32.5371C53.7678 32.2425 53.756 31.7825 54.0268 31.4736C54.3162 31.1441 54.8183 31.1112 55.1479 31.4004L58.5942 34.4258L64.8257 28.7422ZM31.5981 1.58789C28.0956 1.58793 25.3462 2.78493 23.4809 4.76562C21.6112 6.75126 20.5637 9.59544 20.6069 13.0049C20.608 13.0958 20.5934 13.1865 20.5639 13.2725C20.3386 13.9302 20.2183 14.77 20.2446 15.5811L20.2514 15.7422L20.2524 15.7451C20.3079 16.7738 20.4114 17.5113 20.5542 18.0322C20.6803 18.4924 20.8207 18.7244 20.9311 18.8418L20.977 18.8857L20.979 18.8867C21.5371 19.3725 22.0307 19.9768 22.3462 20.7051L22.5591 21.1748C23.647 23.498 25.0894 25.4709 26.6479 26.8789C28.3212 28.3904 30.06 29.1923 31.5981 29.1924C33.1367 29.1924 34.8761 28.3909 36.5493 26.8799C38.2115 25.3786 39.7411 23.2342 40.8501 20.7051L40.8511 20.7031C41.1684 19.9865 41.6535 19.3774 42.2173 18.8867L42.2202 18.8857C42.3355 18.7861 42.4989 18.5583 42.643 18.0322C42.7858 17.5113 42.8894 16.7737 42.9448 15.7451C42.9756 15.1559 42.9258 14.5461 42.8169 13.9922C37.895 15.1998 34.0904 14.0992 31.4829 12.627C30.253 11.9325 29.2956 11.1589 28.6128 10.5176C28.3515 11.5064 27.8259 12.3901 27.1675 13.1191C26.1057 14.2945 24.6505 15.1274 23.2329 15.4053C22.8027 15.4893 22.3856 15.2085 22.3013 14.7783C22.2171 14.3482 22.4972 13.9312 22.9272 13.8467C23.9873 13.6389 25.1423 12.9917 25.9888 12.0547C26.829 11.1245 27.3166 9.96739 27.1831 8.73438C27.1445 8.37625 27.3517 8.03729 27.688 7.9082C28.0244 7.77921 28.4059 7.89237 28.6167 8.18457V8.18555C28.618 8.18729 28.6212 8.18994 28.6245 8.19434C28.6319 8.20424 28.6443 8.22086 28.6616 8.24316C28.6964 8.28799 28.7511 8.35697 28.8257 8.44531C28.975 8.62227 29.2031 8.87772 29.5093 9.17773C30.1228 9.77897 31.044 10.5552 32.2641 11.2441C34.5903 12.5574 38.0303 13.5707 42.5845 12.4131C42.506 9.26587 41.4759 6.63525 39.7153 4.76562C37.85 2.78486 35.1008 1.58789 31.5981 1.58789Z" fill="url(#paint0_linear_4_22701)"/>
<defs>
<linearGradient id="paint0_linear_4_22701" x1="12" y1="-2.12684e-07" x2="45.4371" y2="51.6242" gradientUnits="userSpaceOnUse">
<stop stop-color="#01F3FF"/>
<stop offset="1" stop-color="#004697"/>
</linearGradient>
</defs>
</svg>
