<svg width="63" height="52" viewBox="0 0 63 52" fill="none" xmlns="http://www.w3.org/2000/svg">
<path d="M55.1094 0C59.4671 7.90284e-05 62.9998 3.5144 63 7.84961V38.8242C62.9998 43.1594 59.4671 46.6737 55.1094 46.6738H32.2891V50.4307H40.3369C40.7725 50.4307 41.126 50.7825 41.126 51.2158C41.1258 51.6489 40.7723 52 40.3369 52H22.6631C22.2277 52 21.8742 51.6489 21.874 51.2158C21.874 50.7825 22.2275 50.4307 22.6631 50.4307H30.7109V46.6738H7.89062C3.53286 46.6737 0.000193737 43.1594 0 38.8242V7.84961C0.000205306 3.5144 3.53287 7.93827e-05 7.89062 0H55.1094ZM7.89062 1.56934C4.40396 1.56942 1.57735 4.38099 1.57715 7.84961V10.459H38.5029L38.584 10.4629C38.9815 10.5032 39.292 10.838 39.292 11.2441C39.2918 11.6501 38.9814 11.9841 38.584 12.0244L38.5029 12.0283H1.57715V38.8242C1.57734 42.2928 4.40395 45.1054 7.89062 45.1055H31.4834C31.4889 45.1054 31.4945 45.1045 31.5 45.1045C31.5056 45.1045 31.5111 45.1054 31.5166 45.1055H55.1094C58.5961 45.1054 61.4227 42.2928 61.4229 38.8242V12.0283H59.7461C59.3108 12.0282 58.9582 11.6772 58.958 11.2441C58.958 10.8109 59.3107 10.4591 59.7461 10.459H61.4229V7.84961C61.4226 4.38099 58.596 1.56941 55.1094 1.56934H7.89062ZM31.5088 27.2842C34.8817 27.2842 39.0617 28.2533 41.0352 31.8125L41.127 31.9844L41.3242 32.3945C41.7494 33.3583 41.9389 34.3718 41.998 35.375L42.0088 35.5781C42.0498 36.585 41.9402 37.489 41.5879 38.2686C41.2019 39.1225 40.5563 39.7566 39.666 40.21C38.7967 40.6525 37.6949 40.9234 36.3672 41.0879C35.0338 41.2531 33.4224 41.3164 31.5049 41.3164C29.5871 41.3164 27.9751 41.2531 26.6416 41.0879C25.3139 40.9234 24.2121 40.6525 23.3428 40.21C22.4525 39.7566 21.8069 39.1225 21.4209 38.2686C21.0451 37.437 20.946 36.4636 21.0107 35.375C21.0783 34.2235 21.3168 33.068 21.8818 31.9844L22.0693 31.6455C24.0792 28.2231 28.176 27.2842 31.5 27.2842H31.5088ZM31.5 28.8535C28.2349 28.8535 24.7916 29.8171 23.2812 32.707H23.2822C22.8469 33.5419 22.6436 34.4667 22.585 35.4668V35.4678C22.528 36.4255 22.6287 37.1146 22.8594 37.625C23.0799 38.1129 23.4474 38.5008 24.0615 38.8135C24.6967 39.1368 25.5916 39.3761 26.8359 39.5303C28.0748 39.6838 29.6127 39.7471 31.5049 39.7471C33.3969 39.7471 34.9341 39.6837 36.1729 39.5303C37.4172 39.3761 38.3121 39.1368 38.9473 38.8135C39.5613 38.5008 39.9289 38.1128 40.1494 37.625C40.3801 37.1146 40.4808 36.4247 40.4238 35.4668C40.3651 34.4707 40.1626 33.5416 39.7275 32.707L39.5801 32.4414C38.0017 29.7576 34.6677 28.8535 31.5088 28.8535H31.5ZM31.2295 15.8262C34.1471 15.6777 36.5605 17.9875 36.5605 20.8555C36.5605 22.0825 36.1165 23.2099 35.3809 24.085L35.3799 24.0859C34.4527 25.1833 33.059 25.8857 31.5 25.8857C29.9433 25.8857 28.5488 25.1897 27.6201 24.0859L27.4668 23.8955C26.7264 22.926 26.3321 21.6762 26.4648 20.3398C26.4651 20.3364 26.4655 20.3326 26.4658 20.3291C26.7124 17.8824 28.7667 15.9548 31.2295 15.8271V15.8262ZM31.3105 17.3936C29.6197 17.4814 28.2047 18.8154 28.0352 20.4824C28.0349 20.4849 28.0354 20.4878 28.0352 20.4902C27.9417 21.4208 28.2142 22.2807 28.7227 22.9463L28.8281 23.0771L28.8291 23.0781C29.4686 23.8384 30.4259 24.3164 31.5 24.3164C32.5726 24.3164 33.5309 23.8347 34.1719 23.0762C34.6792 22.472 34.9834 21.6989 34.9834 20.8555C34.9833 18.882 33.3227 17.2913 31.3105 17.3936ZM49.0439 4.10254C49.291 4.10266 49.5229 4.21805 49.6719 4.41406C49.6739 4.41669 49.6786 4.42133 49.6846 4.42871C49.6973 4.44441 49.7191 4.4706 49.749 4.50488C49.809 4.57361 49.9024 4.67597 50.0283 4.79785C50.2813 5.04277 50.6594 5.36263 51.1514 5.65527C52.1269 6.23547 53.5484 6.70922 55.3809 6.2832L55.4639 6.26855C55.6592 6.24471 55.8579 6.29487 56.0195 6.41016C56.2042 6.54194 56.3227 6.74668 56.3447 6.97168C56.4148 7.68714 56.4521 8.42989 56.4521 9.18164C56.4521 11.0947 56.4345 12.6045 56.3027 13.8271C56.17 15.0581 55.9165 16.0593 55.4082 16.9346C54.8976 17.8138 54.1679 18.5004 53.1953 19.168C52.234 19.8278 50.988 20.4997 49.416 21.3252C49.3026 21.3847 49.1761 21.416 49.0479 21.416H49.0391C48.9109 21.416 48.7843 21.3847 48.6709 21.3252C47.1001 20.4998 45.8546 19.8278 44.8936 19.168C43.9214 18.5005 43.1915 17.8144 42.6807 16.9355C42.172 16.0603 41.9183 15.0592 41.7852 13.8281C41.653 12.6053 41.6348 11.095 41.6348 9.18164C41.6348 8.42957 41.6722 7.69111 41.7422 6.97168C41.7642 6.74665 41.8828 6.54199 42.0674 6.41016C42.2521 6.27829 42.4856 6.23176 42.707 6.2832C44.5393 6.70909 45.9601 6.23543 46.9355 5.65527C47.4276 5.36262 47.8056 5.0428 48.0586 4.79785C48.1845 4.67594 48.2779 4.57362 48.3379 4.50488C48.3678 4.47056 48.3896 4.44443 48.4023 4.42871L48.4141 4.41406C48.5631 4.2178 48.7967 4.10254 49.0439 4.10254ZM49.043 6.03027C48.7278 6.32254 48.2936 6.67567 47.7451 7.00195C46.6652 7.6442 45.1408 8.18385 43.248 7.9668C43.2251 8.36665 43.2119 8.77211 43.2119 9.18164C43.2119 11.1079 43.2318 12.5346 43.3535 13.6602C43.4743 14.7772 43.6909 15.5369 44.0469 16.1494C44.4006 16.758 44.9303 17.2867 45.79 17.877C46.5929 18.4282 47.6421 19.0047 49.043 19.7441C50.4454 19.0044 51.4965 18.4283 52.2998 17.877C53.1595 17.2868 53.6886 16.7578 54.042 16.1494C54.3976 15.537 54.6139 14.7773 54.7344 13.6602C54.8557 12.5345 54.875 11.1079 54.875 9.18164C54.875 8.77262 54.8617 8.36628 54.8389 7.9668C52.9462 8.18383 51.4226 7.64416 50.3428 7.00195C49.7938 6.67543 49.3583 6.3227 49.043 6.03027ZM52.5283 10.3584C52.8502 10.0672 53.3484 10.0903 53.6416 10.4102C53.9348 10.7304 53.9116 11.2268 53.5898 11.5186L50.1064 14.6748L50.1055 14.6758C49.1258 15.5606 47.6328 15.5821 46.6309 14.708L45.0947 13.3672L45.0361 13.3105C44.764 13.0195 44.7524 12.5651 45.0215 12.2598C45.3086 11.9341 45.8063 11.902 46.1338 12.1875L47.6709 13.5273L47.7471 13.5879C48.1387 13.8703 48.6791 13.844 49.0449 13.5137L52.5283 10.3584ZM8.4043 5.89551C8.83977 5.89551 9.19325 6.24649 9.19336 6.67969C9.19336 7.11298 8.83984 7.46484 8.4043 7.46484C7.96885 7.46473 7.61621 7.11291 7.61621 6.67969C7.61632 6.24656 7.96892 5.89562 8.4043 5.89551ZM12.1221 5.89551C12.5575 5.89551 12.911 6.24649 12.9111 6.67969C12.9111 7.11298 12.5576 7.46484 12.1221 7.46484C11.6866 7.46471 11.334 7.1129 11.334 6.67969C11.3341 6.24657 11.6867 5.89564 12.1221 5.89551ZM15.8398 5.89551C16.2753 5.89551 16.6288 6.24649 16.6289 6.67969C16.6289 7.11298 16.2754 7.46484 15.8398 7.46484C15.4044 7.46469 15.0518 7.11289 15.0518 6.67969C15.0519 6.24658 15.4045 5.89566 15.8398 5.89551Z" fill="url(#paint0_linear_4_22686)"/>
<defs>
<linearGradient id="paint0_linear_4_22686" x1="10.8121" y1="-2.19479e-07" x2="46.9977" y2="48.7791" gradientUnits="userSpaceOnUse">
<stop stop-color="#01F3FF"/>
<stop offset="1" stop-color="#004697"/>
</linearGradient>
</defs>
</svg>
